<svg width="20" height="20" viewBox="0 0 20 20" fill="none"
  xmlns="http://www.w3.org/2000/svg">
  <path d="M1.66699 10.0001C1.66699 5.39771 5.39795 1.66675 10.0003 1.66675C14.6027 1.66675 18.3337 5.39771 18.3337 10.0001C18.3337 14.6025 14.6027 18.3334 10.0003 18.3334C5.39795 18.3334 1.66699 14.6025 1.66699 10.0001Z" fill="#0CAD09"/>
  <path fill-rule="evenodd" clip-rule="evenodd" d="M14.1505 7.01988C14.4157 7.24085 14.4515 7.63496 14.2305 7.90013L10.0638 12.9001C9.85442 13.1514 9.48663 13.1987 9.22043 13.0086L6.30377 10.9253C6.02288 10.7246 5.95783 10.3343 6.15846 10.0534C6.35909 9.77253 6.74943 9.70747 7.03031 9.9081L9.47494 11.6543L13.2702 7.0999C13.4912 6.83473 13.8853 6.7989 14.1505 7.01988Z" fill="white"/>
</svg>
  