<svg width="20" height="20" viewBox="0 0 20 20" fill="none" xmlns="http://www.w3.org/2000/svg">
  <circle cx="9.99967" cy="10.0002" r="9.16667" fill="#F22A2A" />
  <path fill-rule="evenodd" clip-rule="evenodd"
    d="M6.22505 6.22456C6.46913 5.98048 6.86486 5.98048 7.10893 6.22456L13.7756 12.8912C14.0197 13.1353 14.0197 13.531 13.7756 13.7751C13.5315 14.0192 13.1358 14.0192 12.8917 13.7751L6.22505 7.10845C5.98097 6.86437 5.98097 6.46864 6.22505 6.22456Z"
    fill="white" />
  <path fill-rule="evenodd" clip-rule="evenodd"
    d="M13.7756 6.22456C14.0197 6.46864 14.0197 6.86437 13.7756 7.10845L7.10893 13.7751C6.86486 14.0192 6.46913 14.0192 6.22505 13.7751C5.98097 13.531 5.98097 13.1353 6.22505 12.8912L12.8917 6.22456C13.1358 5.98048 13.5315 5.98048 13.7756 6.22456Z"
    fill="white" />
</svg>
  