<svg width="20" height="20" viewBox="0 0 20 20" fill="none"
  xmlns="http://www.w3.org/2000/svg">
  <path fill-rule="evenodd" clip-rule="evenodd" d="M9.22881 3.54778C8.57013 4.08224 8.16009 4.94687 8.03896 6.35357C8.00934 6.69748 7.70654 6.95226 7.36264 6.92265C7.01873 6.89303 6.76395 6.59023 6.79356 6.24633C6.93077 4.65303 7.42072 3.40516 8.44121 2.57712C9.44445 1.76308 10.8465 1.44995 12.5913 1.44995H12.6996C14.6239 1.44995 16.1337 1.83144 17.1467 2.84447C18.1598 3.85749 18.5413 5.3673 18.5413 7.29162V12.725C18.5413 14.6493 18.1598 16.1591 17.1467 17.1721C16.1337 18.1851 14.6239 18.5666 12.6996 18.5666H12.5913C10.8592 18.5666 9.46556 18.2577 8.46437 17.4567C7.44511 16.6413 6.94868 15.4117 6.80229 13.8413C6.77025 13.4976 7.02289 13.193 7.36658 13.161C7.71027 13.1289 8.01486 13.3816 8.0469 13.7253C8.1755 15.1049 8.58741 15.9544 9.24524 16.4807C9.92113 17.0214 10.9733 17.3166 12.5913 17.3166H12.6996C14.5003 17.3166 15.5988 16.9523 16.2629 16.2882C16.9269 15.6242 17.2913 14.5256 17.2913 12.725V7.29162C17.2913 5.49093 16.9269 4.39241 16.2629 3.72835C15.5988 3.06429 14.5003 2.69995 12.6996 2.69995H12.5913C10.961 2.69995 9.90474 2.99932 9.22881 3.54778ZM5.31662 6.76633C5.56069 7.01041 5.56069 7.40614 5.31662 7.65022L3.59189 9.37495H12.4996C12.8447 9.37495 13.1246 9.65477 13.1246 9.99995C13.1246 10.3451 12.8447 10.6249 12.4996 10.6249H3.5919L5.31662 12.3497C5.56069 12.5937 5.56069 12.9895 5.31662 13.2336C5.07254 13.4776 4.67681 13.4776 4.43273 13.2336L1.64107 10.4419C1.39699 10.1978 1.39699 9.80208 1.64107 9.558L4.43273 6.76633C4.67681 6.52226 5.07254 6.52226 5.31662 6.76633Z" fill="white"/>
</svg>
