<svg width="20" height="20" viewBox="0 0 20 20" fill="none" xmlns="http://www.w3.org/2000/svg">
  <path fill-rule="evenodd" clip-rule="evenodd"
    d="M13.6034 4.28924C12.4949 3.80492 11.2677 3.54167 10 3.54167C6.70681 3.54167 3.68669 5.31827 2.31024 8.13203C2.02404 8.71709 1.875 9.35423 1.875 10C1.875 10.6458 2.02404 11.2829 2.31024 11.868C2.98206 13.2413 4.04546 14.3676 5.34105 15.1608L6.10189 14.1597C4.94887 13.4801 4.01182 12.5017 3.43309 11.3187C3.2293 10.9021 3.125 10.4526 3.125 10C3.125 9.54744 3.2293 9.0979 3.43309 8.68131C4.58165 6.3334 7.14153 4.79167 10 4.79167C10.992 4.79167 11.948 4.97735 12.8216 5.31796L13.6034 4.28924ZM6.39656 15.7108C7.50512 16.1951 8.73233 16.4583 10 16.4583C13.2932 16.4583 16.3133 14.6817 17.6898 11.868C17.976 11.2829 18.125 10.6458 18.125 10C18.125 9.35423 17.976 8.71709 17.6898 8.13203C17.0179 6.75867 15.9545 5.63239 14.659 4.83918L13.8981 5.84029C15.0511 6.51988 15.9882 7.49825 16.5669 8.68131C16.7707 9.0979 16.875 9.54744 16.875 10C16.875 10.4526 16.7707 10.9021 16.5669 11.3187C15.4184 13.6666 12.8585 15.2083 10 15.2083C9.008 15.2083 8.05196 15.0227 7.17839 14.682L6.39656 15.7108ZM8.60755 12.8016C9.77759 13.3827 11.2361 13.1869 12.2103 12.2128C13.3903 11.0307 13.4291 9.13799 12.3241 7.91133L11.5446 8.93699C12.0487 9.6674 11.9764 10.6778 11.326 11.3293C10.8024 11.8526 10.0448 12.0015 9.38738 11.7755L8.60755 12.8016ZM8.67278 8.67528C8.02316 9.32636 7.9505 10.3355 8.45341 11.0656L7.67378 12.0914C6.57012 10.8647 6.60932 8.97298 7.78889 7.79139C8.76372 6.81656 10.2212 6.61955 11.3906 7.20086L10.6107 8.22709C9.9542 8.00138 9.19739 8.15066 8.67278 8.67528Z"
    fill="#fff" fill-opacity="0.4" />
  <path
    d="M15.7118 3.45379C15.9086 3.19487 15.8614 2.82305 15.6063 2.62332C15.3512 2.42358 14.9849 2.47155 14.7881 2.73047L13.6034 4.28924L12.8216 5.31796L11.3906 7.20086L10.6107 8.22709L8.45341 11.0656L7.67378 12.0914L6.10189 14.1597L5.34105 15.1608L4.28815 16.5462C4.09138 16.8051 4.13864 17.1769 4.39373 17.3767C4.64881 17.5764 5.01512 17.5284 5.2119 17.2695L6.39656 15.7108L7.17839 14.682L8.60755 12.8016L9.38738 11.7755L11.5446 8.93699L12.3241 7.91133L13.8981 5.84029L14.659 4.83918L15.7118 3.45379Z"
    fill="#fff" fill-opacity="0.4" />
</svg>
  